<svg xmlns="http://www.w3.org/2000/svg" viewBox="0 0 79 32">
  <path id="logo-path" d="M.097 24.058c.262.045.508.036.721-.033.214-.069.393-.194.561-.34.329-.303.61-.697.855-1.121.488-.856.844-1.821 1.182-2.788.34-.969.63-1.966.933-2.961l.897-3.015c.311-1.011.614-2.032 1.021-3.055.206-.513.457-1.014.77-1.527.159-.258.33-.519.559-.788.233-.263.502-.566 1.018-.792.255-.109.589-.173.915-.129.328.039.607.17.818.31.218.147.357.282.496.43.135.147.248.297.348.447.393.603.595 1.185.767 1.749.325 1.129.479 2.212.61 3.287.248 2.146.351 4.251.519 6.325.083 1.034.178 2.061.321 3.056.072.497.156.986.263 1.453.106.466.237.914.4 1.287.155.375.374.643.471.686.024.015.041.021.062.026.01.002.021.005.035.005l.01.001c.039.002-.1-.007-.149.005-.134.016-.25.064-.323.107-.147.089-.177.145-.196.166-.012.014-.007.012.003-.01.021-.04.055-.12.087-.209.131-.375.241-.869.335-1.352.094-.49.176-.993.251-1.501.297-2.036.514-4.122.735-6.205.218-2.086.43-4.179.67-6.277.245-2.099.502-4.197.895-6.319.1-.531.211-1.064.345-1.604.137-.541.286-1.083.523-1.664.125-.293.257-.593.52-.946.138-.174.304-.374.619-.557.157-.089.355-.165.574-.194.217-.026.449-.005.633.054.099.028.173.064.258.102.074.04.136.073.214.126.169.117.281.235.372.344.178.219.272.402.355.573.158.34.25.637.332.928.306 1.148.436 2.207.568 3.28.124 1.067.216 2.126.297 3.183.318 4.223.479 8.421.763 12.591.145 2.079.303 4.166.605 6.167.077.497.166.988.276 1.448.056.228.117.451.184.645.064.189.151.372.185.414.007.011.005.005-.009-.007-.022-.024-.052-.048-.131-.09-.071-.037-.19-.068-.298-.067-.105 0-.211.034-.231.045-.034.02.055-.031.148-.155.195-.247.404-.663.578-1.092.354-.874.634-1.856.89-2.843.256-.991.486-2.002.711-3.02.449-2.036.87-4.099 1.37-6.166.252-1.034.522-2.07.848-3.109.334-1.039.694-2.079 1.293-3.131.312-.519.67-1.072 1.334-1.544.169-.114.359-.219.572-.298.106-.04.217-.072.332-.098.134-.028.294-.049.452-.041.318.008.633.115.867.253.24.139.414.301.558.456.283.313.455.611.606.897.148.286.264.563.369.837.208.547.366 1.08.509 1.61.557 2.114.909 4.187 1.314 6.239.199 1.024.404 2.041.636 3.035.234.99.493 1.975.835 2.845.169.428.372.837.568 1.087.097.124.178.186.198.189.034.015-.005.005.034.005.037-.005.148-.054.273-.146.128-.092.271-.224.412-.376.285-.304.565-.685.831-1.083.533-.804 1.023-1.694 1.499-2.599.476-.907.938-1.837 1.414-2.773.48-.937.96-1.88 1.541-2.828.3-.475.604-.95 1.068-1.443.115-.122.254-.249.412-.373.09-.064.167-.124.278-.185.049-.027.115-.066.15-.081l.117-.054c.313-.141.669-.258 1.067-.298.396-.042.834.005 1.225.151.392.145.725.368.998.607.544.486.882 1.018 1.177 1.53.573 1.03.968 2.036 1.339 3.027.358.991.67 1.971 1.046 2.878.188.452.389.888.616 1.275.226.387.479.73.748.963.134.117.269.207.408.269l.109.044.147.046c.098.027.195.053.292.071.388.077.762.073 1.126-.024.73-.184 1.429-.79 2.049-1.529.63-.737 1.201-1.596 1.823-2.45.313-.427.638-.857 1.006-1.267.368-.409.78-.804 1.277-1.117.248-.156.518-.287.805-.377.146-.049.279-.075.419-.111.141-.028.284-.054.43-.067.292-.031.596-.015.894.043.299.06.586.181.844.333.521.308.906.747 1.233 1.182.329.44.6.896.871 1.341.537.888 1.058 1.766 1.77 2.422.697.648 1.632 1.043 2.58 1.298.954.252 1.956.353 2.943.255.98-.104 1.977-.42 2.736-1.134-.669.808-1.68 1.257-2.692 1.45-1.022.189-2.077.158-3.1-.048-.513-.1-1.017-.256-1.508-.46-.487-.205-.974-.477-1.388-.84-.839-.717-1.423-1.639-1.994-2.501-.285-.432-.565-.86-.872-1.239-.306-.378-.641-.714-1.013-.911-.37-.205-.775-.263-1.199-.205-.106.015-.213.039-.319.064-.104.035-.221.058-.313.1-.193.078-.378.186-.555.318-.71.531-1.268 1.372-1.804 2.231-.54.867-1.05 1.79-1.704 2.682-.331.443-.698.88-1.143 1.275-.442.393-.973.743-1.583.949-.607.21-1.271.258-1.884.177-.154-.019-.305-.048-.454-.079l-.221-.054c-.079-.021-.169-.052-.253-.079-.337-.121-.644-.299-.912-.502-.538-.409-.927-.899-1.259-1.385-.331-.49-.599-.989-.844-1.486-.486-.996-.883-1.986-1.261-2.952-.369-.963-.711-1.924-1.151-2.716-.218-.391-.465-.736-.695-.935-.114-.1-.216-.16-.302-.194-.087-.03-.165-.039-.273-.03-.106.01-.242.048-.392.117l-.057.025c-.024.01-.01.008-.018.01-.002-.003-.025.019-.041.027-.043.037-.097.08-.158.147-.247.258-.52.655-.771 1.06-.507.825-.978 1.741-1.447 2.66-.469.923-.935 1.861-1.427 2.8-.494.939-1.008 1.879-1.622 2.808-.312.464-.644.925-1.065 1.376-.211.225-.444.448-.732.658-.289.206-.634.413-1.095.514-.229.049-.482.066-.736.035-.251-.034-.501-.109-.71-.218-.442-.219-.736-.532-.959-.812-.438-.574-.678-1.123-.898-1.663-.421-1.078-.689-2.129-.938-3.177-.245-1.047-.453-2.088-.656-3.123-.406-2.064-.763-4.134-1.276-6.075-.13-.481-.272-.953-.436-1.384-.082-.214-.169-.419-.261-.596-.089-.175-.19-.327-.256-.396-.031-.035-.051-.046-.034-.035.014.009.079.036.144.037.03 0 .065-.002.074-.006-.01.003-.02.005-.033.01-.026.01-.062.027-.105.057-.181.119-.441.436-.652.809-.437.759-.782 1.705-1.084 2.657-.302.96-.561 1.953-.805 2.956-.487 2.008-.904 4.058-1.359 6.118-.228 1.03-.463 2.064-.731 3.103-.272 1.04-.561 2.08-.991 3.145-.225.534-.462 1.074-.903 1.649-.227.28-.517.602-1.022.826-.136.061-.367.131-.6.129-.235.005-.48-.06-.665-.154-.196-.096-.324-.206-.442-.315-.104-.105-.19-.209-.257-.305-.263-.384-.373-.692-.484-.995-.104-.3-.18-.584-.249-.865-.135-.56-.231-1.102-.315-1.642-.323-2.152-.478-4.26-.627-6.37-.285-4.213-.448-8.414-.761-12.57-.08-1.038-.17-2.071-.288-3.09-.121-1.01-.261-2.041-.497-2.92-.059-.214-.129-.417-.191-.55-.032-.065-.065-.112-.052-.092.009.01.029.036.092.08.025.016.03.021.05.028.025.016.043.019.081.033.063.017.165.035.257.019.093-.01.17-.044.216-.07.091-.057.078-.064.058-.034-.05.061-.144.238-.221.425-.159.387-.294.856-.413 1.331-.118.478-.222.972-.316 1.472-.373 2.005-.629 4.078-.87 6.15-.238 2.075-.448 4.161-.668 6.253-.222 2.093-.438 4.187-.747 6.306-.079.531-.164 1.063-.268 1.604-.109.545-.217 1.081-.429 1.695-.057.157-.119.32-.219.511-.048.094-.113.204-.2.323-.098.123-.218.276-.474.431-.129.076-.304.146-.502.17-.08.013-.251.009-.243.007l-.084-.007c-.113-.01-.227-.03-.34-.058-.226-.055-.447-.147-.643-.263-.395-.233-.681-.543-.897-.842-.217-.302-.37-.601-.5-.894-.254-.586-.409-1.151-.538-1.706-.127-.556-.22-1.102-.298-1.643-.156-1.083-.253-2.149-.338-3.208-.17-2.114-.274-4.208-.51-6.235-.121-1.007-.273-2.01-.53-2.896-.128-.436-.292-.849-.472-1.116-.045-.066-.089-.122-.129-.166-.036-.041-.088-.083-.083-.078 0 0 .039.024.114.035.072.01.149-.008.17-.019.043-.026-.069.042-.169.169-.104.127-.219.302-.328.49-.216.383-.412.827-.625 1.271-.423.894-.836 1.84-1.228 2.8-.79 1.921-1.539 3.895-2.479 5.81-.473.955-.989 1.902-1.658 2.774-.339.428-.72.86-1.246 1.129-.258.134-.562.214-.855.187-.295-.023-.559-.156-.751-.343z" fill="#4bc0ea"/>
</svg>
